<svg id="SvgjsSvg1006" width="345" height="563" xmlns="http://www.w3.org/2000/svg" version="1.1" xmlns:xlink="http://www.w3.org/1999/xlink" xmlns:svgjs="http://svgjs.com/svgjs"><defs id="SvgjsDefs1007"><marker id="SvgjsMarker1034" markerWidth="16" markerHeight="12" refX="16" refY="6" viewBox="0 0 16 12" orient="auto" markerUnits="userSpaceOnUse" stroke-dasharray="0,0"><path id="SvgjsPath1035" d="M0,2 L14,6 L0,11 L0,2" fill="#323232" stroke="#323232" stroke-width="2"></path></marker><marker id="SvgjsMarker1038" markerWidth="16" markerHeight="12" refX="16" refY="6" viewBox="0 0 16 12" orient="auto" markerUnits="userSpaceOnUse" stroke-dasharray="0,0"><path id="SvgjsPath1039" d="M0,2 L14,6 L0,11 L0,2" fill="#323232" stroke="#323232" stroke-width="2"></path></marker><marker id="SvgjsMarker1042" markerWidth="16" markerHeight="12" refX="16" refY="6" viewBox="0 0 16 12" orient="auto" markerUnits="userSpaceOnUse" stroke-dasharray="0,0"><path id="SvgjsPath1043" d="M0,2 L14,6 L0,11 L0,2" fill="#323232" stroke="#323232" stroke-width="2"></path></marker><marker id="SvgjsMarker1076" markerWidth="16" markerHeight="12" refX="16" refY="6" viewBox="0 0 16 12" orient="auto" markerUnits="userSpaceOnUse" stroke-dasharray="0,0"><path id="SvgjsPath1077" d="M0,2 L14,6 L0,11 L0,2" fill="#323232" stroke="#323232" stroke-width="2"></path></marker><marker id="SvgjsMarker1080" markerWidth="16" markerHeight="12" refX="16" refY="6" viewBox="0 0 16 12" orient="auto" markerUnits="userSpaceOnUse" stroke-dasharray="0,0"><path id="SvgjsPath1081" d="M0,2 L14,6 L0,11 L0,2" fill="#323232" stroke="#323232" stroke-width="2"></path></marker><marker id="SvgjsMarker1084" markerWidth="16" markerHeight="12" refX="16" refY="6" viewBox="0 0 16 12" orient="auto" markerUnits="userSpaceOnUse" stroke-dasharray="0,0"><path id="SvgjsPath1085" d="M0,2 L14,6 L0,11 L0,2" fill="#323232" stroke="#323232" stroke-width="2"></path></marker><marker id="SvgjsMarker1088" markerWidth="16" markerHeight="12" refX="16" refY="6" viewBox="0 0 16 12" orient="auto" markerUnits="userSpaceOnUse" stroke-dasharray="0,0"><path id="SvgjsPath1089" d="M0,2 L14,6 L0,11 L0,2" fill="#323232" stroke="#323232" stroke-width="2"></path></marker><marker id="SvgjsMarker1092" markerWidth="16" markerHeight="12" refX="16" refY="6" viewBox="0 0 16 12" orient="auto" markerUnits="userSpaceOnUse" stroke-dasharray="0,0"><path id="SvgjsPath1093" d="M0,2 L14,6 L0,11 L0,2" fill="#323232" stroke="#323232" stroke-width="2"></path></marker><marker id="SvgjsMarker1096" markerWidth="16" markerHeight="12" refX="16" refY="6" viewBox="0 0 16 12" orient="auto" markerUnits="userSpaceOnUse" stroke-dasharray="0,0"><path id="SvgjsPath1097" d="M0,2 L14,6 L0,11 L0,2" fill="#323232" stroke="#323232" stroke-width="2"></path></marker><marker id="SvgjsMarker1100" markerWidth="16" markerHeight="12" refX="16" refY="6" viewBox="0 0 16 12" orient="auto" markerUnits="userSpaceOnUse" stroke-dasharray="0,0"><path id="SvgjsPath1101" d="M0,2 L14,6 L0,11 L0,2" fill="#323232" stroke="#323232" stroke-width="2"></path></marker><marker id="SvgjsMarker1104" markerWidth="16" markerHeight="12" refX="16" refY="6" viewBox="0 0 16 12" orient="auto" markerUnits="userSpaceOnUse" stroke-dasharray="0,0"><path id="SvgjsPath1105" d="M0,2 L14,6 L0,11 L0,2" fill="#323232" stroke="#323232" stroke-width="2"></path></marker></defs><g id="SvgjsG1008" transform="translate(25,25)"><path id="SvgjsPath1009" d="M 0 4Q 0 0 4 0L 109 0Q 113 0 113 4L 113 47Q 113 51 109 51L 4 51Q 0 51 0 47Z" stroke="rgba(50,50,50,1)" stroke-width="2" fill-opacity="1" fill="#ffffff"></path><g id="SvgjsG1010"><text id="SvgjsText1011" font-family="微软雅黑" text-anchor="middle" font-size="13px" width="93px" fill="#323232" font-weight="400" align="middle" anchor="middle" family="微软雅黑" size="13px" weight="400" font-style="" opacity="1" y="15.55" transform="rotate(0)"><tspan id="SvgjsTspan1012" dy="16" x="56.5"><tspan id="SvgjsTspan1013" style="text-decoration:;">文献调研</tspan></tspan></text></g></g><g id="SvgjsG1014" transform="translate(25,164)"><path id="SvgjsPath1015" d="M 0 4Q 0 0 4 0L 109 0Q 113 0 113 4L 113 46Q 113 50 109 50L 4 50Q 0 50 0 46Z" stroke="rgba(50,50,50,1)" stroke-width="2" fill-opacity="1" fill="#ffffff"></path><g id="SvgjsG1016"><text id="SvgjsText1017" font-family="微软雅黑" text-anchor="middle" font-size="13px" width="93px" fill="#323232" font-weight="400" align="middle" anchor="middle" family="微软雅黑" size="13px" weight="400" font-style="" opacity="1" y="15.05" transform="rotate(0)"><tspan id="SvgjsTspan1018" dy="16" x="56.5"><tspan id="SvgjsTspan1019" style="text-decoration:;">方案设计、优化</tspan></tspan></text></g></g><g id="SvgjsG1020" transform="translate(25,306)"><path id="SvgjsPath1021" d="M 0 4Q 0 0 4 0L 109 0Q 113 0 113 4L 113 46Q 113 50 109 50L 4 50Q 0 50 0 46Z" stroke="rgba(50,50,50,1)" stroke-width="2" fill-opacity="1" fill="#ffffff"></path><g id="SvgjsG1022"><text id="SvgjsText1023" font-family="微软雅黑" text-anchor="middle" font-size="13px" width="93px" fill="#323232" font-weight="400" align="middle" anchor="middle" family="微软雅黑" size="13px" weight="400" font-style="" opacity="1" y="15.05" transform="rotate(0)"><tspan id="SvgjsTspan1024" dy="16" x="56.5"><tspan id="SvgjsTspan1025" style="text-decoration:;">算法开发</tspan></tspan></text></g></g><g id="SvgjsG1026" transform="translate(25,458)"><path id="SvgjsPath1027" d="M 0 4Q 0 0 4 0L 109 0Q 113 0 113 4L 113 45Q 113 49 109 49L 4 49Q 0 49 0 45Z" stroke="rgba(50,50,50,1)" stroke-width="2" fill-opacity="1" fill="#ffffff"></path><g id="SvgjsG1028"><text id="SvgjsText1029" font-family="微软雅黑" text-anchor="middle" font-size="13px" width="93px" fill="#323232" font-weight="400" align="middle" anchor="middle" family="微软雅黑" size="13px" weight="400" font-style="" opacity="1" y="14.55" transform="rotate(0)"><tspan id="SvgjsTspan1030" dy="16" x="56.5"><tspan id="SvgjsTspan1031" style="text-decoration:;">算法验证</tspan></tspan></text></g></g><g id="SvgjsG1032"><path id="SvgjsPath1033" d="M81.5 76L81.5 120L81.5 120L81.5 164" stroke="#323232" stroke-width="2" fill="none" marker-end="url(#SvgjsMarker1034)"></path></g><g id="SvgjsG1036"><path id="SvgjsPath1037" d="M81.5 214L81.5 260L81.5 260L81.5 306" stroke="#323232" stroke-width="2" fill="none" marker-end="url(#SvgjsMarker1038)"></path></g><g id="SvgjsG1040"><path id="SvgjsPath1041" d="M81.5 356L81.5 407L81.5 407L81.5 458" stroke="#323232" stroke-width="2" fill="none" marker-end="url(#SvgjsMarker1042)"></path></g><g id="SvgjsG1044" transform="translate(209,251)"><path id="SvgjsPath1045" d="M 0 4Q 0 0 4 0L 107 0Q 111 0 111 4L 111 33Q 111 37 107 37L 4 37Q 0 37 0 33Z" stroke="rgba(50,50,50,1)" stroke-width="2" fill-opacity="1" fill="#ffffff"></path><g id="SvgjsG1046"><text id="SvgjsText1047" font-family="微软雅黑" text-anchor="middle" font-size="13px" width="91px" fill="#323232" font-weight="400" align="middle" anchor="middle" family="微软雅黑" size="13px" weight="400" font-style="" opacity="1" y="8.55" transform="rotate(0)"><tspan id="SvgjsTspan1048" dy="16" x="55.5"><tspan id="SvgjsTspan1049" style="text-decoration:;">描述符设计</tspan></tspan></text></g></g><g id="SvgjsG1050" transform="translate(209,312.5)"><path id="SvgjsPath1051" d="M 0 4Q 0 0 4 0L 107 0Q 111 0 111 4L 111 33Q 111 37 107 37L 4 37Q 0 37 0 33Z" stroke="rgba(50,50,50,1)" stroke-width="2" fill-opacity="1" fill="#ffffff"></path><g id="SvgjsG1052"><text id="SvgjsText1053" font-family="微软雅黑" text-anchor="middle" font-size="13px" width="91px" fill="#323232" font-weight="400" align="middle" anchor="middle" family="微软雅黑" size="13px" weight="400" font-style="" opacity="1" y="8.55" transform="rotate(0)"><tspan id="SvgjsTspan1054" dy="16" x="55.5"><tspan id="SvgjsTspan1055" style="text-decoration:;">SLAM系统搭建</tspan></tspan></text></g></g><g id="SvgjsG1056" transform="translate(209,372)"><path id="SvgjsPath1057" d="M 0 4Q 0 0 4 0L 107 0Q 111 0 111 4L 111 33Q 111 37 107 37L 4 37Q 0 37 0 33Z" stroke="rgba(50,50,50,1)" stroke-width="2" fill-opacity="1" fill="#ffffff"></path><g id="SvgjsG1058"><text id="SvgjsText1059" font-family="微软雅黑" text-anchor="middle" font-size="13px" width="91px" fill="#323232" font-weight="400" align="middle" anchor="middle" family="微软雅黑" size="13px" weight="400" font-style="" opacity="1" y="8.55" transform="rotate(0)"><tspan id="SvgjsTspan1060" dy="16" x="55.5"><tspan id="SvgjsTspan1061" style="text-decoration:;">重定位模块设计</tspan></tspan></text></g></g><g id="SvgjsG1062" transform="translate(209,435)"><path id="SvgjsPath1063" d="M 0 4Q 0 0 4 0L 107 0Q 111 0 111 4L 111 33Q 111 37 107 37L 4 37Q 0 37 0 33Z" stroke="rgba(50,50,50,1)" stroke-width="2" fill-opacity="1" fill="#ffffff"></path><g id="SvgjsG1064"><text id="SvgjsText1065" font-family="微软雅黑" text-anchor="middle" font-size="13px" width="91px" fill="#323232" font-weight="400" align="middle" anchor="middle" family="微软雅黑" size="13px" weight="400" font-style="" opacity="1" y="8.55" transform="rotate(0)"><tspan id="SvgjsTspan1066" dy="16" x="55.5"><tspan id="SvgjsTspan1067" style="text-decoration:;">数据集验证</tspan></tspan></text></g></g><g id="SvgjsG1068" transform="translate(209,500)"><path id="SvgjsPath1069" d="M 0 4Q 0 0 4 0L 107 0Q 111 0 111 4L 111 33Q 111 37 107 37L 4 37Q 0 37 0 33Z" stroke="rgba(50,50,50,1)" stroke-width="2" fill-opacity="1" fill="#ffffff"></path><g id="SvgjsG1070"><text id="SvgjsText1071" font-family="微软雅黑" text-anchor="middle" font-size="13px" width="91px" fill="#323232" font-weight="400" align="middle" anchor="middle" family="微软雅黑" size="13px" weight="400" font-style="" opacity="1" y="8.55" transform="rotate(0)"><tspan id="SvgjsTspan1072" dy="16" x="55.5"><tspan id="SvgjsTspan1073" style="text-decoration:;">实车实验</tspan></tspan></text></g></g><g id="SvgjsG1074"><path id="SvgjsPath1075" d="M264.5 288L264.5 300.25L264.5 300.25L264.5 312.5" stroke="#323232" stroke-width="2" fill="none" marker-end="url(#SvgjsMarker1076)"></path></g><g id="SvgjsG1078"><path id="SvgjsPath1079" d="M264.5 349.5L264.5 360.75L264.5 360.75L264.5 372" stroke="#323232" stroke-width="2" fill="none" marker-end="url(#SvgjsMarker1080)"></path></g><g id="SvgjsG1082"><path id="SvgjsPath1083" d="M264.5 472L264.5 486L264.5 486L264.5 500" stroke="#323232" stroke-width="2" fill="none" marker-end="url(#SvgjsMarker1084)"></path></g><g id="SvgjsG1086"><path id="SvgjsPath1087" d="M138 482.5L173.5 482.5L173.5 453.5L209 453.5" stroke="#323232" stroke-width="2" fill="none" marker-end="url(#SvgjsMarker1088)"></path></g><g id="SvgjsG1090"><path id="SvgjsPath1091" d="M138 482.5L173.5 482.5L173.5 518.5L209 518.5" stroke="#323232" stroke-width="2" fill="none" marker-end="url(#SvgjsMarker1092)"></path></g><g id="SvgjsG1094"><path id="SvgjsPath1095" d="M138 331L173.5 331L173.5 269.5L209 269.5" stroke="#323232" stroke-width="2" fill="none" marker-end="url(#SvgjsMarker1096)"></path></g><g id="SvgjsG1098"><path id="SvgjsPath1099" d="M138 331L173.5 331L173.5 331L209 331" stroke="#323232" stroke-width="2" fill="none" marker-end="url(#SvgjsMarker1100)"></path></g><g id="SvgjsG1102"><path id="SvgjsPath1103" d="M138 331L173.5 331L173.5 390.5L209 390.5" stroke="#323232" stroke-width="2" fill="none" marker-end="url(#SvgjsMarker1104)"></path></g></svg>