<svg id="SvgjsSvg1006" width="693.5124816894531" height="369.1000061035156" xmlns="http://www.w3.org/2000/svg" version="1.1" xmlns:xlink="http://www.w3.org/1999/xlink" xmlns:svgjs="http://svgjs.com/svgjs"><defs id="SvgjsDefs1007"><marker id="SvgjsMarker1051" markerWidth="16" markerHeight="12" refX="16" refY="6" viewBox="0 0 16 12" orient="auto" markerUnits="userSpaceOnUse" stroke-dasharray="0,0"><path id="SvgjsPath1052" d="M0,2 L14,6 L0,11 L0,2" fill="#323232" stroke="#323232" stroke-width="2"></path></marker><marker id="SvgjsMarker1055" markerWidth="16" markerHeight="12" refX="16" refY="6" viewBox="0 0 16 12" orient="auto" markerUnits="userSpaceOnUse" stroke-dasharray="0,0"><path id="SvgjsPath1056" d="M0,2 L14,6 L0,11 L0,2" fill="#323232" stroke="#323232" stroke-width="2"></path></marker><marker id="SvgjsMarker1059" markerWidth="16" markerHeight="12" refX="16" refY="6" viewBox="0 0 16 12" orient="auto" markerUnits="userSpaceOnUse" stroke-dasharray="0,0"><path id="SvgjsPath1060" d="M0,2 L14,6 L0,11 L0,2" fill="#323232" stroke="#323232" stroke-width="2"></path></marker><marker id="SvgjsMarker1063" markerWidth="16" markerHeight="12" refX="16" refY="6" viewBox="0 0 16 12" orient="auto" markerUnits="userSpaceOnUse" stroke-dasharray="0,0"><path id="SvgjsPath1064" d="M0,2 L14,6 L0,11 L0,2" fill="#323232" stroke="#323232" stroke-width="2"></path></marker><marker id="SvgjsMarker1076" markerWidth="16" markerHeight="12" refX="16" refY="6" viewBox="0 0 16 12" orient="auto" markerUnits="userSpaceOnUse" stroke-dasharray="0,0"><path id="SvgjsPath1077" d="M0,2 L14,6 L0,11 L0,2" fill="#323232" stroke="#323232" stroke-width="2"></path></marker></defs><g id="SvgjsG1008" transform="translate(25.012481689453125,152.012451171875)"><path id="SvgjsPath1009" d="M 0 4Q 0 0 4 0L 224.49998474121094 0Q 228.49998474121094 0 228.49998474121094 4L 228.49998474121094 66Q 228.49998474121094 70 224.49998474121094 70L 4 70Q 0 70 0 66Z" stroke="rgba(50,50,50,1)" stroke-width="2" fill-opacity="1" fill="#ffffff"></path><g id="SvgjsG1010"><text id="SvgjsText1011" font-family="微软雅黑" text-anchor="middle" font-size="13px" width="209px" fill="#323232" font-weight="400" align="middle" anchor="middle" family="微软雅黑" size="13px" weight="400" font-style="" opacity="1" y="17.05" transform="rotate(0)"><tspan id="SvgjsTspan1012" dy="16" x="114.5"><tspan id="SvgjsTspan1013" style="text-decoration:;">基于高精度地图和多传感器融合的</tspan></tspan><tspan id="SvgjsTspan1014" dy="16" x="114.5"><tspan id="SvgjsTspan1015" style="text-decoration:;">智能车定位导航系统研究</tspan></tspan></text></g></g><g id="SvgjsG1016" transform="translate(386.51246643066406,25.012451171875)"><path id="SvgjsPath1017" d="M 0 4Q 0 0 4 0L 278 0Q 282 0 282 4L 282 35Q 282 39 278 39L 4 39Q 0 39 0 35Z" stroke="rgba(50,50,50,1)" stroke-width="2" fill-opacity="1" fill="#ffffff"></path><g id="SvgjsG1018"><text id="SvgjsText1019" font-family="微软雅黑" text-anchor="middle" font-size="13px" width="262px" fill="#323232" font-weight="400" align="middle" anchor="middle" family="微软雅黑" size="13px" weight="400" font-style="" opacity="1" y="1.55" transform="rotate(0)"><tspan id="SvgjsTspan1020" dy="16" x="141"><tspan id="SvgjsTspan1021" style="text-decoration:;">基于激光雷达和组合导航生成高精度地图的算</tspan></tspan><tspan id="SvgjsTspan1022" dy="16" x="141"><tspan id="SvgjsTspan1023" style="text-decoration:;">法开发</tspan></tspan></text></g></g><g id="SvgjsG1024" transform="translate(386.51246643066406,97.012451171875)"><path id="SvgjsPath1025" d="M 0 4Q 0 0 4 0L 278 0Q 282 0 282 4L 282 35Q 282 39 278 39L 4 39Q 0 39 0 35Z" stroke="rgba(50,50,50,1)" stroke-width="2" fill-opacity="1" fill="#ffffff"></path><g id="SvgjsG1026"><text id="SvgjsText1027" font-family="微软雅黑" text-anchor="middle" font-size="13px" width="262px" fill="#323232" font-weight="400" align="middle" anchor="middle" family="微软雅黑" size="13px" weight="400" font-style="" opacity="1" y="1.55" transform="rotate(0)"><tspan id="SvgjsTspan1028" dy="16" x="141"><tspan id="SvgjsTspan1029" style="text-decoration:;">基于激光雷达的道路交通标志牌的检测</tspan></tspan><tspan id="SvgjsTspan1030" dy="16" x="141"><tspan id="SvgjsTspan1031" style="text-decoration:;">与多标志牌的目标跟踪算法开发</tspan></tspan></text></g></g><g id="SvgjsG1032" transform="translate(386.51246643066406,167.512451171875)"><path id="SvgjsPath1033" d="M 0 4Q 0 0 4 0L 278 0Q 282 0 282 4L 282 35Q 282 39 278 39L 4 39Q 0 39 0 35Z" stroke="rgba(50,50,50,1)" stroke-width="2" fill-opacity="1" fill="#ffffff"></path><g id="SvgjsG1034"><text id="SvgjsText1035" font-family="微软雅黑" text-anchor="middle" font-size="13px" width="262px" fill="#323232" font-weight="400" align="middle" anchor="middle" family="微软雅黑" size="13px" weight="400" font-style="" opacity="1" y="1.55" transform="rotate(0)"><tspan id="SvgjsTspan1036" dy="16" x="141"><tspan id="SvgjsTspan1037" style="text-decoration:;">基于激光雷达检测得到的标志牌与</tspan><tspan id="SvgjsTspan1038" style="text-decoration:;font-size: inherit;">高精度地图</tspan></tspan><tspan id="SvgjsTspan1039" dy="16" x="141"><tspan id="SvgjsTspan1040" style="text-decoration:;font-size: inherit;">标志牌信息匹配的车辆高精度定位算法开发</tspan></tspan></text></g></g><g id="SvgjsG1041" transform="translate(386.51246643066406,305.11244201660156)"><path id="SvgjsPath1042" d="M 0 4Q 0 0 4 0L 278 0Q 282 0 282 4L 282 35Q 282 39 278 39L 4 39Q 0 39 0 35Z" stroke="rgba(50,50,50,1)" stroke-width="2" fill-opacity="1" fill="#ffffff"></path><g id="SvgjsG1043"><text id="SvgjsText1044" font-family="微软雅黑" text-anchor="middle" font-size="13px" width="262px" fill="#323232" font-weight="400" align="middle" anchor="middle" family="微软雅黑" size="13px" weight="400" font-style="" opacity="1" y="1.55" transform="rotate(0)"><tspan id="SvgjsTspan1045" dy="16" x="141"><tspan id="SvgjsTspan1046" style="text-decoration:;">融合标志牌的匹配结果、车道线的匹配结果、</tspan></tspan><tspan id="SvgjsTspan1047" dy="16" x="141"><tspan id="SvgjsTspan1048" style="text-decoration:;">IMU的车辆高精度地位算法开发</tspan></tspan></text></g></g><g id="SvgjsG1049"><path id="SvgjsPath1050" d="M253.51246643066406 187.012451171875L320.01246643066406 187.012451171875L320.01246643066406 44.512451171875L386.51246643066406 44.512451171875" stroke="#323232" stroke-width="2" fill="none" marker-end="url(#SvgjsMarker1051)"></path></g><g id="SvgjsG1053"><path id="SvgjsPath1054" d="M253.51246643066406 187.012451171875L320.01246643066406 187.012451171875L320.01246643066406 116.512451171875L386.51246643066406 116.512451171875" stroke="#323232" stroke-width="2" fill="none" marker-end="url(#SvgjsMarker1055)"></path></g><g id="SvgjsG1057"><path id="SvgjsPath1058" d="M253.51246643066406 187.012451171875L320.01246643066406 187.012451171875L320.01246643066406 187.012451171875L386.51246643066406 187.012451171875" stroke="#323232" stroke-width="2" fill="none" marker-end="url(#SvgjsMarker1059)"></path></g><g id="SvgjsG1061"><path id="SvgjsPath1062" d="M253.51246643066406 187.012451171875L320.01246643066406 187.012451171875L320.01246643066406 324.61244201660156L386.51246643066406 324.61244201660156" stroke="#323232" stroke-width="2" fill="none" marker-end="url(#SvgjsMarker1063)"></path></g><g id="SvgjsG1065" transform="translate(386.51246643066406,237.512451171875)"><path id="SvgjsPath1066" d="M 0 4Q 0 0 4 0L 278 0Q 282 0 282 4L 282 35Q 282 39 278 39L 4 39Q 0 39 0 35Z" stroke="rgba(50,50,50,1)" stroke-width="2" fill-opacity="1" fill="#ffffff"></path><g id="SvgjsG1067"><text id="SvgjsText1068" font-family="微软雅黑" text-anchor="middle" font-size="13px" width="262px" fill="#323232" font-weight="400" align="middle" anchor="middle" family="微软雅黑" size="13px" weight="400" font-style="" opacity="1" y="1.55" transform="rotate(0)"><tspan id="SvgjsTspan1069" dy="16" x="141"><tspan id="SvgjsTspan1070" style="text-decoration:;">基于激光雷达检测得到的道路边界与</tspan><tspan id="SvgjsTspan1071" style="text-decoration:;font-size: inherit;">高精度地</tspan></tspan><tspan id="SvgjsTspan1072" dy="16" x="141"><tspan id="SvgjsTspan1073" style="text-decoration:;font-size: inherit;">图车道线信息匹配的车辆定位算法开发</tspan></tspan></text></g></g><g id="SvgjsG1074"><path id="SvgjsPath1075" d="M253.51246643066406 187.012451171875L320.01246643066406 187.012451171875L320.01246643066406 257.012451171875L386.51246643066406 257.012451171875" stroke="#323232" stroke-width="2" fill="none" marker-end="url(#SvgjsMarker1076)"></path></g></svg>