<svg id="SvgjsSvg1006" width="520.0000305175781" height="513.4124908447266" xmlns="http://www.w3.org/2000/svg" version="1.1" xmlns:xlink="http://www.w3.org/1999/xlink" xmlns:svgjs="http://svgjs.com/svgjs"><defs id="SvgjsDefs1007"><marker id="SvgjsMarker1067" markerWidth="16" markerHeight="12" refX="16" refY="6" viewBox="0 0 16 12" orient="auto" markerUnits="userSpaceOnUse" stroke-dasharray="0,0"><path id="SvgjsPath1068" d="M0,2 L14,6 L0,11 L0,2" fill="#323232" stroke="#323232" stroke-width="2"></path></marker><marker id="SvgjsMarker1071" markerWidth="16" markerHeight="12" refX="16" refY="6" viewBox="0 0 16 12" orient="auto" markerUnits="userSpaceOnUse" stroke-dasharray="0,0"><path id="SvgjsPath1072" d="M0,2 L14,6 L0,11 L0,2" fill="#323232" stroke="#323232" stroke-width="2"></path></marker><marker id="SvgjsMarker1075" markerWidth="16" markerHeight="12" refX="16" refY="6" viewBox="0 0 16 12" orient="auto" markerUnits="userSpaceOnUse" stroke-dasharray="0,0"><path id="SvgjsPath1076" d="M0,2 L14,6 L0,11 L0,2" fill="#323232" stroke="#323232" stroke-width="2"></path></marker><marker id="SvgjsMarker1079" markerWidth="16" markerHeight="12" refX="16" refY="6" viewBox="0 0 16 12" orient="auto" markerUnits="userSpaceOnUse" stroke-dasharray="0,0"><path id="SvgjsPath1080" d="M0,2 L14,6 L0,11 L0,2" fill="#323232" stroke="#323232" stroke-width="2"></path></marker><marker id="SvgjsMarker1083" markerWidth="16" markerHeight="12" refX="16" refY="6" viewBox="0 0 16 12" orient="auto" markerUnits="userSpaceOnUse" stroke-dasharray="0,0"><path id="SvgjsPath1084" d="M0,2 L14,6 L0,11 L0,2" fill="#323232" stroke="#323232" stroke-width="2"></path></marker><marker id="SvgjsMarker1087" markerWidth="16" markerHeight="12" refX="16" refY="6" viewBox="0 0 16 12" orient="auto" markerUnits="userSpaceOnUse" stroke-dasharray="0,0"><path id="SvgjsPath1088" d="M0,2 L14,6 L0,11 L0,2" fill="#323232" stroke="#323232" stroke-width="2"></path></marker><marker id="SvgjsMarker1091" markerWidth="16" markerHeight="12" refX="16" refY="6" viewBox="0 0 16 12" orient="auto" markerUnits="userSpaceOnUse" stroke-dasharray="0,0"><path id="SvgjsPath1092" d="M0,2 L14,6 L0,11 L0,2" fill="#323232" stroke="#323232" stroke-width="2"></path></marker><marker id="SvgjsMarker1101" markerWidth="16" markerHeight="12" refX="16" refY="6" viewBox="0 0 16 12" orient="auto" markerUnits="userSpaceOnUse" stroke-dasharray="0,0"><path id="SvgjsPath1102" d="M0,2 L14,6 L0,11 L0,2" fill="#323232" stroke="#323232" stroke-width="2"></path></marker><marker id="SvgjsMarker1105" markerWidth="16" markerHeight="12" refX="16" refY="6" viewBox="0 0 16 12" orient="auto" markerUnits="userSpaceOnUse" stroke-dasharray="0,0"><path id="SvgjsPath1106" d="M0,2 L14,6 L0,11 L0,2" fill="#323232" stroke="#323232" stroke-width="2"></path></marker><marker id="SvgjsMarker1109" markerWidth="16" markerHeight="12" refX="16" refY="6" viewBox="0 0 16 12" orient="auto" markerUnits="userSpaceOnUse" stroke-dasharray="0,0"><path id="SvgjsPath1110" d="M0,2 L14,6 L0,11 L0,2" fill="#323232" stroke="#323232" stroke-width="2"></path></marker><marker id="SvgjsMarker1122" markerWidth="16" markerHeight="12" refX="16" refY="6" viewBox="0 0 16 12" orient="auto" markerUnits="userSpaceOnUse" stroke-dasharray="0,0"><path id="SvgjsPath1123" d="M0,2 L14,6 L0,11 L0,2" fill="#323232" stroke="#323232" stroke-width="2"></path></marker><marker id="SvgjsMarker1126" markerWidth="16" markerHeight="12" refX="16" refY="6" viewBox="0 0 16 12" orient="auto" markerUnits="userSpaceOnUse" stroke-dasharray="0,0"><path id="SvgjsPath1127" d="M0,2 L14,6 L0,11 L0,2" fill="#323232" stroke="#323232" stroke-width="2"></path></marker><marker id="SvgjsMarker1130" markerWidth="16" markerHeight="12" refX="16" refY="6" viewBox="0 0 16 12" orient="auto" markerUnits="userSpaceOnUse" stroke-dasharray="0,0"><path id="SvgjsPath1131" d="M0,2 L14,6 L0,11 L0,2" fill="#323232" stroke="#323232" stroke-width="2"></path></marker></defs><g id="SvgjsG1008" transform="translate(25.000015258789062,25.012489318847656)"><path id="SvgjsPath1009" d="M 0 4Q 0 0 4 0L 96 0Q 100 0 100 4L 100 66Q 100 70 96 70L 4 70Q 0 70 0 66Z" stroke="rgba(50,50,50,1)" stroke-width="2" fill-opacity="1" fill="#ffffff"></path><g id="SvgjsG1010"><text id="SvgjsText1011" font-family="微软雅黑" text-anchor="middle" font-size="13px" width="80px" fill="#323232" font-weight="400" align="middle" anchor="middle" family="微软雅黑" size="13px" weight="400" font-style="" opacity="1" y="25.05" transform="rotate(0)"><tspan id="SvgjsTspan1012" dy="16" x="50"><tspan id="SvgjsTspan1013" style="text-decoration:;">文献调研</tspan></tspan></text></g></g><g id="SvgjsG1014" transform="translate(25.000015258789062,146.41249084472656)"><path id="SvgjsPath1015" d="M 0 4Q 0 0 4 0L 96 0Q 100 0 100 4L 100 66Q 100 70 96 70L 4 70Q 0 70 0 66Z" stroke="rgba(50,50,50,1)" stroke-width="2" fill-opacity="1" fill="#ffffff"></path><g id="SvgjsG1016"><text id="SvgjsText1017" font-family="微软雅黑" text-anchor="middle" font-size="13px" width="80px" fill="#323232" font-weight="400" align="middle" anchor="middle" family="微软雅黑" size="13px" weight="400" font-style="" opacity="1" y="25.05" transform="rotate(0)"><tspan id="SvgjsTspan1018" dy="16" x="50"><tspan id="SvgjsTspan1019" style="text-decoration:;">方案设计</tspan></tspan></text></g></g><g id="SvgjsG1020" transform="translate(25.000015258789062,268.41249084472656)"><path id="SvgjsPath1021" d="M 0 4Q 0 0 4 0L 96 0Q 100 0 100 4L 100 66Q 100 70 96 70L 4 70Q 0 70 0 66Z" stroke="rgba(50,50,50,1)" stroke-width="2" fill-opacity="1" fill="#ffffff"></path><g id="SvgjsG1022"><text id="SvgjsText1023" font-family="微软雅黑" text-anchor="middle" font-size="13px" width="80px" fill="#323232" font-weight="400" align="middle" anchor="middle" family="微软雅黑" size="13px" weight="400" font-style="" opacity="1" y="25.05" transform="rotate(0)"><tspan id="SvgjsTspan1024" dy="16" x="50"><tspan id="SvgjsTspan1025" style="text-decoration:;">算法开发</tspan></tspan></text></g></g><g id="SvgjsG1026" transform="translate(25.000015258789062,418.41249084472656)"><path id="SvgjsPath1027" d="M 0 4Q 0 0 4 0L 96 0Q 100 0 100 4L 100 66Q 100 70 96 70L 4 70Q 0 70 0 66Z" stroke="rgba(50,50,50,1)" stroke-width="2" fill-opacity="1" fill="#ffffff"></path><g id="SvgjsG1028"><text id="SvgjsText1029" font-family="微软雅黑" text-anchor="middle" font-size="13px" width="80px" fill="#323232" font-weight="400" align="middle" anchor="middle" family="微软雅黑" size="13px" weight="400" font-style="" opacity="1" y="25.05" transform="rotate(0)"><tspan id="SvgjsTspan1030" dy="16" x="50"><tspan id="SvgjsTspan1031" style="text-decoration:;">算法验证</tspan></tspan></text></g></g><g id="SvgjsG1032" transform="translate(213.00001525878906,86.91249084472656)"><path id="SvgjsPath1033" d="M 0 4Q 0 0 4 0L 278 0Q 282 0 282 4L 282 35Q 282 39 278 39L 4 39Q 0 39 0 35Z" stroke="rgba(50,50,50,1)" stroke-width="2" fill-opacity="1" fill="#ffffff"></path><g id="SvgjsG1034"><text id="SvgjsText1035" font-family="微软雅黑" text-anchor="middle" font-size="13px" width="262px" fill="#323232" font-weight="400" align="middle" anchor="middle" family="微软雅黑" size="13px" weight="400" font-style="" opacity="1" y="1.55" transform="rotate(0)"><tspan id="SvgjsTspan1036" dy="16" x="141"><tspan id="SvgjsTspan1037" style="text-decoration:;">基于激光雷达和组合导航生成高精度地图的算</tspan></tspan><tspan id="SvgjsTspan1038" dy="16" x="141"><tspan id="SvgjsTspan1039" style="text-decoration:;">法开发</tspan></tspan></text></g></g><g id="SvgjsG1040" transform="translate(213.00001525878906,158.91249084472656)"><path id="SvgjsPath1041" d="M 0 4Q 0 0 4 0L 278 0Q 282 0 282 4L 282 35Q 282 39 278 39L 4 39Q 0 39 0 35Z" stroke="rgba(50,50,50,1)" stroke-width="2" fill-opacity="1" fill="#ffffff"></path><g id="SvgjsG1042"><text id="SvgjsText1043" font-family="微软雅黑" text-anchor="middle" font-size="13px" width="262px" fill="#323232" font-weight="400" align="middle" anchor="middle" family="微软雅黑" size="13px" weight="400" font-style="" opacity="1" y="1.55" transform="rotate(0)"><tspan id="SvgjsTspan1044" dy="16" x="141"><tspan id="SvgjsTspan1045" style="text-decoration:;">基于激光雷达的道路交通标志牌的检测</tspan></tspan><tspan id="SvgjsTspan1046" dy="16" x="141"><tspan id="SvgjsTspan1047" style="text-decoration:;">与多标志牌的目标跟踪算法开发</tspan></tspan></text></g></g><g id="SvgjsG1048" transform="translate(213.00001525878906,229.41249084472656)"><path id="SvgjsPath1049" d="M 0 4Q 0 0 4 0L 278 0Q 282 0 282 4L 282 35Q 282 39 278 39L 4 39Q 0 39 0 35Z" stroke="rgba(50,50,50,1)" stroke-width="2" fill-opacity="1" fill="#ffffff"></path><g id="SvgjsG1050"><text id="SvgjsText1051" font-family="微软雅黑" text-anchor="middle" font-size="13px" width="262px" fill="#323232" font-weight="400" align="middle" anchor="middle" family="微软雅黑" size="13px" weight="400" font-style="" opacity="1" y="1.55" transform="rotate(0)"><tspan id="SvgjsTspan1052" dy="16" x="141"><tspan id="SvgjsTspan1053" style="text-decoration:;">基于激光雷达检测得到的标志牌与</tspan><tspan id="SvgjsTspan1054" style="text-decoration:;font-size: inherit;">高精度地图</tspan></tspan><tspan id="SvgjsTspan1055" dy="16" x="141"><tspan id="SvgjsTspan1056" style="text-decoration:;font-size: inherit;">标志牌信息匹配的车辆高精度定位算法开发</tspan></tspan></text></g></g><g id="SvgjsG1057" transform="translate(213.00001525878906,367.0124816894531)"><path id="SvgjsPath1058" d="M 0 4Q 0 0 4 0L 278 0Q 282 0 282 4L 282 35Q 282 39 278 39L 4 39Q 0 39 0 35Z" stroke="rgba(50,50,50,1)" stroke-width="2" fill-opacity="1" fill="#ffffff"></path><g id="SvgjsG1059"><text id="SvgjsText1060" font-family="微软雅黑" text-anchor="middle" font-size="13px" width="262px" fill="#323232" font-weight="400" align="middle" anchor="middle" family="微软雅黑" size="13px" weight="400" font-style="" opacity="1" y="1.55" transform="rotate(0)"><tspan id="SvgjsTspan1061" dy="16" x="141"><tspan id="SvgjsTspan1062" style="text-decoration:;">融合标志牌的匹配结果、车道线的匹配结果、</tspan></tspan><tspan id="SvgjsTspan1063" dy="16" x="141"><tspan id="SvgjsTspan1064" style="text-decoration:;">IMU的车辆高精度地位算法开发</tspan></tspan></text></g></g><g id="SvgjsG1065"><path id="SvgjsPath1066" d="M75.00001525878906 95.01248931884766L75.00001525878906 120.71249008178711L75.00001525878906 120.71249008178711L75.00001525878906 146.41249084472656" stroke="#323232" stroke-width="2" fill="none" marker-end="url(#SvgjsMarker1067)"></path></g><g id="SvgjsG1069"><path id="SvgjsPath1070" d="M75.00001525878906 216.41249084472656L75.00001525878906 242.41249084472656L75.00001525878906 242.41249084472656L75.00001525878906 268.41249084472656" stroke="#323232" stroke-width="2" fill="none" marker-end="url(#SvgjsMarker1071)"></path></g><g id="SvgjsG1073"><path id="SvgjsPath1074" d="M75.00001525878906 338.41249084472656L75.00001525878906 378.41249084472656L75.00001525878906 378.41249084472656L75.00001525878906 418.41249084472656" stroke="#323232" stroke-width="2" fill="none" marker-end="url(#SvgjsMarker1075)"></path></g><g id="SvgjsG1077"><path id="SvgjsPath1078" d="M125.00001525878906 303.41249084472656L169.00001525878906 303.41249084472656L169.00001525878906 106.41249084472656L213.00001525878906 106.41249084472656" stroke="#323232" stroke-width="2" fill="none" marker-end="url(#SvgjsMarker1079)"></path></g><g id="SvgjsG1081"><path id="SvgjsPath1082" d="M125.00001525878906 303.41249084472656L169.00001525878906 303.41249084472656L169.00001525878906 178.41249084472656L213.00001525878906 178.41249084472656" stroke="#323232" stroke-width="2" fill="none" marker-end="url(#SvgjsMarker1083)"></path></g><g id="SvgjsG1085"><path id="SvgjsPath1086" d="M125.00001525878906 303.41249084472656L169.00001525878906 303.41249084472656L169.00001525878906 248.91249084472656L213.00001525878906 248.91249084472656" stroke="#323232" stroke-width="2" fill="none" marker-end="url(#SvgjsMarker1087)"></path></g><g id="SvgjsG1089"><path id="SvgjsPath1090" d="M125.00001525878906 303.41249084472656L168.50001525878906 303.41249084472656L168.50001525878906 386.5124816894531L213.00001525878906 386.5124816894531" stroke="#323232" stroke-width="2" fill="none" marker-end="url(#SvgjsMarker1091)"></path></g><g id="SvgjsG1093" transform="translate(213.00001525878906,433.91249084472656)"><path id="SvgjsPath1094" d="M 0 4Q 0 0 4 0L 278 0Q 282 0 282 4L 282 35Q 282 39 278 39L 4 39Q 0 39 0 35Z" stroke="rgba(50,50,50,1)" stroke-width="2" fill-opacity="1" fill="#ffffff"></path><g id="SvgjsG1095"><text id="SvgjsText1096" font-family="微软雅黑" text-anchor="middle" font-size="13px" width="262px" fill="#323232" font-weight="400" align="middle" anchor="middle" family="微软雅黑" size="13px" weight="400" font-style="" opacity="1" y="9.55" transform="rotate(0)"><tspan id="SvgjsTspan1097" dy="16" x="141"><tspan id="SvgjsTspan1098" style="text-decoration:;">利用自动驾驶车辆对算法进行验证</tspan></tspan></text></g></g><g id="SvgjsG1099"><path id="SvgjsPath1100" d="M125.00001525878906 453.41249084472656L169.00001525878906 453.41249084472656L169.00001525878906 453.41249084472656L213.00001525878906 453.41249084472656" stroke="#323232" stroke-width="2" fill="none" marker-end="url(#SvgjsMarker1101)"></path></g><g id="SvgjsG1103"><path id="SvgjsPath1104" d="M354.00001525878906 125.91249084472656L354.00001525878906 142.41249084472656L354.00001525878906 142.41249084472656L354.00001525878906 158.91249084472656" stroke="#323232" stroke-width="2" fill="none" marker-end="url(#SvgjsMarker1105)"></path></g><g id="SvgjsG1107"><path id="SvgjsPath1108" d="M354.00001525878906 197.91249084472656L354.00001525878906 213.66249084472656L354.00001525878906 213.66249084472656L354.00001525878906 229.41249084472656" stroke="#323232" stroke-width="2" fill="none" marker-end="url(#SvgjsMarker1109)"></path></g><g id="SvgjsG1111" transform="translate(213.00001525878906,299.41249084472656)"><path id="SvgjsPath1112" d="M 0 4Q 0 0 4 0L 278 0Q 282 0 282 4L 282 35Q 282 39 278 39L 4 39Q 0 39 0 35Z" stroke="rgba(50,50,50,1)" stroke-width="2" fill-opacity="1" fill="#ffffff"></path><g id="SvgjsG1113"><text id="SvgjsText1114" font-family="微软雅黑" text-anchor="middle" font-size="13px" width="262px" fill="#323232" font-weight="400" align="middle" anchor="middle" family="微软雅黑" size="13px" weight="400" font-style="" opacity="1" y="1.55" transform="rotate(0)"><tspan id="SvgjsTspan1115" dy="16" x="141"><tspan id="SvgjsTspan1116" style="text-decoration:;">基于激光雷达检测得到的道路边界与</tspan><tspan id="SvgjsTspan1117" style="text-decoration:;font-size: inherit;">高精度地</tspan></tspan><tspan id="SvgjsTspan1118" dy="16" x="141"><tspan id="SvgjsTspan1119" style="text-decoration:;font-size: inherit;">图车道线信息匹配的车辆定位算法开发</tspan></tspan></text></g></g><g id="SvgjsG1120"><path id="SvgjsPath1121" d="M354.00001525878906 268.41249084472656L354.00001525878906 283.91249084472656L354.00001525878906 283.91249084472656L354.00001525878906 299.41249084472656" stroke="#323232" stroke-width="2" fill="none" marker-end="url(#SvgjsMarker1122)"></path></g><g id="SvgjsG1124"><path id="SvgjsPath1125" d="M125.00001525878906 303.41249084472656L169.00001525878906 303.41249084472656L169.00001525878906 318.91249084472656L213.00001525878906 318.91249084472656" stroke="#323232" stroke-width="2" fill="none" marker-end="url(#SvgjsMarker1126)"></path></g><g id="SvgjsG1128"><path id="SvgjsPath1129" d="M354.00001525878906 338.41249084472656L354.00001525878906 352.71248626708984L354.00001525878906 352.71248626708984L354.00001525878906 367.0124816894531" stroke="#323232" stroke-width="2" fill="none" marker-end="url(#SvgjsMarker1130)"></path></g></svg>